<svg width="140" height="54" viewBox="0 0 140 54" fill="none" xmlns="http://www.w3.org/2000/svg">
<path d="M42.3689 36.2869C41.3451 41.4922 38.4198 46.1299 34.1632 49.2963C29.9066 52.4626 24.6236 53.9307 19.3437 53.4146C14.0638 52.8984 9.16513 50.4349 5.60237 46.5041C2.03961 42.5733 0.0679484 37.4569 0.0715993 32.1518C0.0715993 17.6639 14.0521 11.8779 20.6182 0.691977C20.6946 0.558033 20.8047 0.446357 20.9375 0.36799C21.0703 0.289624 21.2213 0.247281 21.3755 0.245148L21.421 0.245148C21.5752 0.247281 21.7261 0.289624 21.859 0.36799C21.9918 0.446357 22.1019 0.558033 22.1783 0.691977C27.048 9.0227 35.053 13.4531 39.7258 21.3673H35.2954C33.929 21.3905 32.5723 21.1336 31.3089 20.6126C30.0455 20.0917 28.9021 19.3175 27.9492 18.338L26.3588 16.7627C24.6165 15.1171 22.968 13.375 21.421 11.5446C19.8713 13.375 18.2202 15.1171 16.4755 16.7627C12.136 21.0114 7.3269 25.7447 7.3269 32.1518C7.29803 35.7122 8.61779 39.1516 11.021 41.7788C13.4241 44.406 16.7326 46.0263 20.2815 46.314C23.8304 46.6018 27.3566 45.5357 30.1517 43.3299C32.9467 41.1242 34.8033 37.9424 35.3484 34.4238H15.7106C15.5459 34.4238 15.388 34.3584 15.2715 34.2419C15.155 34.1255 15.0896 33.9675 15.0896 33.8028V33.7195C15.0936 31.9893 15.7827 30.3312 17.0061 29.1077C18.2295 27.8843 19.8877 27.1952 21.6179 27.1912H42.066C42.2307 27.1912 42.3887 27.2567 42.5051 27.3731C42.6216 27.4896 42.687 27.6476 42.687 27.8123C42.687 30.9022 42.9294 33.3257 42.3538 36.2869" fill="#fff"/>
<path fill-rule="evenodd" clip-rule="evenodd" d="M78.2742 33.4469V49.8584H86.037V53.4709H74.0937V33.1894H78.2742V33.4469ZM70.6403 33.4469V53.4709H66.4673V33.1894H70.6403V33.4469ZM62.3853 52.653C61.5124 53.4053 60.3862 53.7978 59.2348 53.7511H53.8425C52.6911 53.7978 51.5649 53.4053 50.692 52.653C50.2966 52.2689 49.9859 51.8064 49.7798 51.2951C49.5737 50.7838 49.4769 50.2351 49.4954 49.6842V36.9761C49.477 36.4263 49.5739 35.8787 49.78 35.3687C49.9861 34.8587 50.2968 34.3975 50.692 34.0149C51.5606 33.2544 52.6892 32.8584 53.8425 32.9092H59.212C60.3645 32.8646 61.4908 33.2598 62.3626 34.0149C62.7578 34.3975 63.0684 34.8587 63.2745 35.3687C63.4806 35.8787 63.5776 36.4263 63.5592 36.9761V49.6842C63.5806 50.2335 63.4873 50.7812 63.2852 51.2923C63.0831 51.8035 62.7766 52.2669 62.3853 52.653ZM54.0546 49.8508C54.2882 50.0497 54.5887 50.1526 54.8952 50.1386H58.2805C58.5868 50.1511 58.8867 50.0484 59.1212 49.8508C59.2272 49.7562 59.3108 49.6391 59.3659 49.5081C59.4209 49.3771 59.446 49.2354 59.4392 49.0935V37.5441C59.446 37.4021 59.4209 37.2604 59.3659 37.1294C59.3108 36.9984 59.2272 36.8813 59.1212 36.7867C58.8879 36.5864 58.5878 36.481 58.2805 36.4914H54.8573C54.5499 36.4802 54.2496 36.5857 54.0167 36.7867C53.9106 36.8813 53.827 36.9984 53.772 37.1294C53.717 37.2604 53.6919 37.4021 53.6986 37.5441V49.1238C53.6964 49.2607 53.7236 49.3965 53.7785 49.5219C53.8334 49.6474 53.9146 49.7595 54.0167 49.8508H54.0546ZM131.303 8.65919V25.0707H139.073V28.6908H127.054V8.40927H131.235L131.303 8.65919ZM119.216 20.8372L117.565 14.0893L115.944 20.8372H119.216ZM124.911 28.6908H121.034L120.049 24.4497H115.081L114.089 28.6908H109.969V26.8505C111.625 20.7009 113.291 14.5538 114.967 8.40927H120.155C121.826 14.5538 123.495 20.7009 125.161 26.8505V28.6908H124.911ZM103.827 12.3171C103.593 12.1181 103.293 12.0129 102.986 12.0218H99.8508V16.4598H102.986C103.295 16.4645 103.595 16.3538 103.827 16.1493C103.933 16.0547 104.016 15.9376 104.072 15.8066C104.127 15.6755 104.152 15.5339 104.145 15.3919V13.0366C104.146 12.901 104.118 12.7666 104.063 12.6426C104.009 12.5185 103.928 12.4076 103.827 12.3171ZM99.8508 20.0723V25.0707H103.691C104.015 25.0971 104.336 24.9935 104.584 24.7829C104.69 24.6883 104.774 24.5713 104.829 24.4402C104.884 24.3092 104.909 24.1675 104.902 24.0256V21.0871C104.903 20.9515 104.876 20.8171 104.821 20.6931C104.766 20.569 104.685 20.4581 104.584 20.3676C104.351 20.1673 104.051 20.0619 103.744 20.0723H99.8508ZM104.683 28.6908H95.6703V8.40927H104.001C105.154 8.35846 106.283 8.75453 107.152 9.51498C107.552 9.89446 107.868 10.3545 108.078 10.8649C108.289 11.3753 108.388 11.9245 108.371 12.4762V15.301C108.378 15.8846 108.2 16.4553 107.862 16.9314C107.525 17.4076 107.045 17.7647 106.493 17.9517C107.356 18.1638 109.075 18.9287 109.075 21.6551V24.6239C109.094 25.1737 108.997 25.7212 108.791 26.2312C108.584 26.7412 108.274 27.2024 107.879 27.5851C107.003 28.3437 105.871 28.7393 104.713 28.6908H104.683ZM91.5882 27.8653C90.7196 28.6257 89.5911 29.0218 88.4377 28.971H83.0682C81.9174 29.0198 80.792 28.6239 79.9252 27.8653C79.5275 27.4842 79.2147 27.0234 79.0072 26.5132C78.7997 26.0029 78.7022 25.4546 78.7211 24.9041V12.196C78.7021 11.6443 78.7995 11.0948 79.007 10.5833C79.2144 10.0718 79.5273 9.60975 79.9252 9.22719C80.7962 8.47672 81.9193 8.08431 83.0682 8.12905H88.4377C89.5891 8.08237 90.7153 8.4749 91.5882 9.22719C91.9837 9.61127 92.2944 10.0738 92.5004 10.5851C92.7065 11.0963 92.8034 11.645 92.7848 12.196V24.9041C92.8072 25.4517 92.715 25.9979 92.5141 26.5078C92.3133 27.0176 92.0083 27.48 91.6185 27.8653H91.5882ZM83.2575 25.0631C83.4916 25.2622 83.7911 25.3674 84.0982 25.3585H87.491C87.796 25.3684 88.0935 25.263 88.3241 25.0631C88.4311 24.9689 88.5159 24.8521 88.5722 24.7211C88.6285 24.5901 88.655 24.4483 88.6498 24.3058V12.7564C88.655 12.6139 88.6285 12.472 88.5722 12.3411C88.5159 12.2101 88.4311 12.0933 88.3241 11.9991C88.0928 11.8013 87.7951 11.6985 87.491 11.7113H84.0982C83.7921 11.7003 83.4927 11.8027 83.2575 11.9991C83.1515 12.0936 83.0679 12.2107 83.0128 12.3417C82.9578 12.4728 82.9327 12.6144 82.9394 12.7564V24.3361C82.9362 24.4724 82.9623 24.6079 83.0159 24.7333C83.0694 24.8587 83.1493 24.9712 83.25 25.0631H83.2575ZM69.936 8.65919V25.0707H77.7062V28.6908H65.7554V8.40927H69.936V8.65919ZM61.9536 10.9312L60.8933 11.9915H54.8346C54.5272 11.9804 54.2269 12.0859 53.994 12.2868C53.8879 12.3814 53.8043 12.4985 53.7493 12.6295C53.6943 12.7606 53.6692 12.9022 53.6759 13.0442V24.0559C53.6692 24.1978 53.6943 24.3395 53.7493 24.4705C53.8043 24.6015 53.8879 24.7186 53.994 24.8132C54.2276 25.0121 54.5281 25.115 54.8346 25.101H58.3865V17.308H62.5595V28.6681H53.8425C52.6901 28.7127 51.5638 28.3174 50.692 27.5623C50.2968 27.1797 49.9861 26.7185 49.78 26.2085C49.5739 25.6985 49.477 25.1509 49.4954 24.6012V12.4837C49.4765 11.9339 49.5732 11.3862 49.7794 10.8761C49.9855 10.366 50.2964 9.90491 50.692 9.52256C51.5595 8.75936 52.6881 8.36054 53.8425 8.40927H62.0293V10.8858L61.9536 10.9312Z" fill="#fff"/>
</svg>
