<svg width="179" height="70" viewBox="0 0 179 70" fill="none" xmlns="http://www.w3.org/2000/svg">
<path d="M54.4545 46.7202C53.138 53.4129 49.377 59.3757 43.9042 63.4468C38.4313 67.5178 31.6389 69.4054 24.8503 68.7418C18.0617 68.0781 11.7634 64.9107 7.18267 59.8568C2.60192 54.8029 0.0669067 48.2246 0.0716007 41.4036C0.0716007 22.7762 18.0467 15.3369 26.4889 0.954872C26.5872 0.782656 26.7287 0.639071 26.8995 0.538313C27.0703 0.437555 27.2644 0.383114 27.4626 0.380371L27.5211 0.380371C27.7193 0.383114 27.9135 0.437555 28.0842 0.538313C28.255 0.639071 28.3965 0.782656 28.4948 0.954872C34.7559 11.6659 45.0482 17.3622 51.0561 27.5377H45.3598C43.603 27.5675 41.8587 27.2373 40.2343 26.5674C38.6099 25.8976 37.1398 24.9023 35.9146 23.6428L33.8698 21.6174C31.6297 19.5016 29.5101 17.2618 27.5211 14.9084C25.5286 17.2618 23.4058 19.5017 21.1626 21.6174C15.5831 27.0801 9.39994 33.1659 9.39994 41.4036C9.36283 45.9814 11.0597 50.4035 14.1495 53.7814C17.2393 57.1592 21.4931 59.2425 26.056 59.6124C30.6189 59.9824 35.1527 58.6116 38.7464 55.7757C42.34 52.9397 44.7271 48.8487 45.428 44.3248H20.1791C19.9674 44.3248 19.7643 44.2407 19.6145 44.091C19.4648 43.9412 19.3807 43.7381 19.3807 43.5264V43.4193C19.3858 41.1947 20.2718 39.0628 21.8448 37.4898C23.4178 35.9168 25.5497 35.0309 27.7742 35.0257H54.065C54.2767 35.0257 54.4798 35.1098 54.6296 35.2596C54.7793 35.4093 54.8634 35.6124 54.8634 35.8242C54.8634 39.797 55.175 42.9129 54.435 46.7202" fill="white"/>
<path fill-rule="evenodd" clip-rule="evenodd" d="M100.619 43.0688V64.1696H110.6V68.8143H95.2439V42.7378H100.619V43.0688ZM90.8037 43.0688V68.8143H85.4385V42.7378H90.8037V43.0688ZM80.1901 67.7626C79.0677 68.7299 77.6198 69.2346 76.1393 69.1745H69.2064C67.726 69.2346 66.278 68.7299 65.1557 67.7626C64.6473 67.2688 64.2478 66.6741 63.9828 66.0168C63.7179 65.3594 63.5933 64.6539 63.6172 63.9456V47.6064C63.5935 46.8995 63.7181 46.1955 63.9831 45.5398C64.2481 44.8841 64.6475 44.2911 65.1557 43.7991C66.2725 42.8214 67.7235 42.3122 69.2064 42.3775H76.1101C77.5918 42.3201 79.0399 42.8284 80.1608 43.7991C80.669 44.2911 81.0684 44.8841 81.3334 45.5398C81.5984 46.1955 81.723 46.8995 81.6993 47.6064V63.9456C81.727 64.6518 81.607 65.356 81.3471 66.0132C81.0872 66.6705 80.6932 67.2663 80.1901 67.7626ZM69.479 64.1598C69.7794 64.4156 70.1657 64.5478 70.5599 64.5298H74.9124C75.3063 64.5459 75.6919 64.4139 75.9933 64.1598C76.1297 64.0382 76.2371 63.8877 76.3079 63.7192C76.3786 63.5508 76.4109 63.3686 76.4022 63.1861V48.3367C76.4109 48.1542 76.3786 47.972 76.3079 47.8036C76.2371 47.6351 76.1297 47.4846 75.9933 47.363C75.6933 47.1054 75.3076 46.9699 74.9124 46.9832H70.5112C70.1159 46.9689 69.7298 47.1046 69.4303 47.363C69.294 47.4846 69.1865 47.6351 69.1157 47.8036C69.045 47.972 69.0127 48.1542 69.0214 48.3367V63.225C69.0185 63.4011 69.0535 63.5757 69.1241 63.737C69.1946 63.8983 69.2991 64.0425 69.4303 64.1598H69.479ZM168.8 11.1986V32.2994H178.79V36.9538H163.337V10.8773H168.712L168.8 11.1986ZM153.259 26.8562L151.136 18.1803L149.052 26.8562H153.259ZM160.581 36.9538H155.596L154.33 31.5009H147.942L146.667 36.9538H141.37V34.5876C143.499 26.6809 145.641 18.7775 147.796 10.8773H154.466C156.615 18.7775 158.76 26.6809 160.903 34.5876V36.9538H160.581ZM133.473 15.9017C133.172 15.6458 132.787 15.5105 132.392 15.522H128.361V21.228H132.392C132.789 21.2341 133.175 21.0918 133.473 20.8288C133.609 20.7072 133.716 20.5567 133.787 20.3882C133.858 20.2197 133.89 20.0376 133.882 19.8551V16.8268C133.883 16.6524 133.847 16.4797 133.777 16.3202C133.706 16.1606 133.603 16.018 133.473 15.9017ZM128.361 25.8727V32.2994H133.297C133.714 32.3332 134.128 32.2001 134.446 31.9293C134.583 31.8077 134.69 31.6572 134.761 31.4887C134.832 31.3203 134.864 31.1381 134.855 30.9556V27.1775C134.857 27.0031 134.821 26.8304 134.751 26.6709C134.68 26.5114 134.576 26.3688 134.446 26.2525C134.146 25.9949 133.761 25.8594 133.365 25.8727H128.361ZM134.573 36.9538H122.986V10.8773H133.697C135.179 10.812 136.63 11.3212 137.747 12.2989C138.263 12.7868 138.669 13.3784 138.939 14.0346C139.209 14.6909 139.337 15.3969 139.315 16.1062V19.7382C139.324 20.4885 139.095 21.2222 138.661 21.8344C138.227 22.4466 137.611 22.9058 136.9 23.1463C138.01 23.4189 140.221 24.4024 140.221 27.9078V31.7249C140.244 32.4317 140.12 33.1357 139.855 33.7915C139.59 34.4472 139.19 35.0402 138.682 35.5321C137.556 36.5076 136.1 37.0161 134.612 36.9538H134.573ZM117.737 35.8924C116.62 36.8702 115.169 37.3794 113.686 37.3141H106.783C105.303 37.3769 103.856 36.8678 102.742 35.8924C102.23 35.4024 101.828 34.81 101.561 34.154C101.295 33.4979 101.169 32.793 101.193 32.0851V15.7459C101.169 15.0367 101.294 14.3302 101.561 13.6725C101.828 13.0149 102.23 12.4208 102.742 11.9289C103.862 10.964 105.306 10.4595 106.783 10.517H113.686C115.167 10.457 116.615 10.9617 117.737 11.9289C118.245 12.4227 118.645 13.0174 118.91 13.6748C119.175 14.3321 119.299 15.0376 119.276 15.7459V32.0851C119.304 32.7892 119.186 33.4914 118.928 34.147C118.669 34.8026 118.277 35.3971 117.776 35.8924H117.737ZM107.026 32.2896C107.327 32.5455 107.712 32.6808 108.107 32.6694H112.469C112.861 32.6822 113.244 32.5466 113.54 32.2896C113.678 32.1685 113.787 32.0183 113.859 31.8499C113.932 31.6815 113.966 31.4991 113.959 31.3159V16.4665C113.966 16.2833 113.932 16.1009 113.859 15.9325C113.787 15.7641 113.678 15.6139 113.54 15.4928C113.243 15.2385 112.86 15.1063 112.469 15.1228H108.107C107.713 15.1086 107.328 15.2404 107.026 15.4928C106.89 15.6144 106.782 15.7649 106.711 15.9334C106.641 16.1018 106.608 16.284 106.617 16.4665V31.3548C106.613 31.5301 106.646 31.7043 106.715 31.8655C106.784 32.0268 106.887 32.1714 107.016 32.2896H107.026ZM89.8981 11.1986V32.2994H99.8886V36.9538H84.5232V10.8773H89.8981V11.1986ZM79.635 14.1198L78.2718 15.483H70.482C70.0867 15.4687 69.7006 15.6044 69.4011 15.8628C69.2647 15.9844 69.1573 16.1349 69.0865 16.3034C69.0157 16.4719 68.9835 16.654 68.9922 16.8365V30.9946C68.9835 31.1771 69.0157 31.3592 69.0865 31.5277C69.1573 31.6962 69.2647 31.8467 69.4011 31.9683C69.7015 32.224 70.0878 32.3563 70.482 32.3383H75.0488V22.3186H80.414V36.9246H69.2064C67.7246 36.9819 66.2766 36.4737 65.1557 35.5029C64.6475 35.011 64.2481 34.418 63.9831 33.7623C63.7181 33.1065 63.5935 32.4025 63.6172 31.6957V16.116C63.5929 15.409 63.7173 14.7048 63.9823 14.049C64.2473 13.3932 64.647 12.8003 65.1557 12.3087C66.271 11.3274 67.7221 10.8146 69.2064 10.8773H79.7324V14.0614L79.635 14.1198Z" fill="white"/>
</svg>
