<svg width="515" height="742" viewBox="0 0 515 742" fill="none" xmlns="http://www.w3.org/2000/svg">
<mask id="path-1-inside-1" fill="white">
<path d="M588.605 502.159C574.364 574.562 533.677 639.068 474.471 683.109C415.266 727.15 341.784 747.57 268.344 740.391C194.905 733.211 126.769 698.946 77.2142 644.273C27.6592 589.599 0.235179 518.434 0.285959 444.644C0.285959 243.13 194.742 162.651 286.071 7.06463C287.134 5.20157 288.665 3.64825 290.513 2.55824C292.36 1.46824 294.46 0.879281 296.605 0.849609L297.237 0.849609C299.382 0.879281 301.482 1.46824 303.329 2.55824C305.177 3.64825 306.708 5.20157 307.771 7.06463C375.504 122.938 486.848 184.561 551.842 294.641H490.219C471.213 294.963 452.343 291.391 434.77 284.144C417.197 276.898 401.294 266.13 388.04 252.505L365.918 230.595C341.685 207.706 318.755 183.475 297.237 158.016C275.682 183.475 252.717 207.706 228.451 230.595C168.091 289.69 101.201 355.527 101.201 444.644C100.799 494.166 119.156 542.005 152.582 578.548C186.008 615.09 232.026 637.626 281.388 641.629C330.75 645.631 379.797 630.802 418.674 600.123C457.55 569.443 483.374 525.186 490.956 476.246H217.811C215.521 476.246 213.323 475.336 211.704 473.716C210.084 472.096 209.174 469.899 209.174 467.608V466.449C209.229 442.384 218.814 419.32 235.83 402.304C252.847 385.287 275.911 375.702 299.976 375.647H584.392C586.683 375.647 588.88 376.557 590.5 378.177C592.12 379.797 593.03 381.994 593.03 384.285C593.03 427.263 596.401 460.972 588.395 502.159"/>
</mask>
<path d="M0.285959 444.644L1.28596 444.645V444.644H0.285959ZM286.071 7.06463L286.934 7.57089L286.94 7.56026L286.071 7.06463ZM296.605 0.849609V-0.150486L296.591 -0.150295L296.605 0.849609ZM297.237 0.849609L297.251 -0.150391H297.237V0.849609ZM307.771 7.06463L306.902 7.56029L306.908 7.56928L307.771 7.06463ZM551.842 294.641V295.641H553.594L552.703 294.132L551.842 294.641ZM490.219 294.641V293.641H490.21L490.202 293.641L490.219 294.641ZM388.04 252.505L388.756 251.808L388.75 251.801L388.743 251.795L388.04 252.505ZM365.918 230.595L366.622 229.884L366.614 229.876L366.605 229.868L365.918 230.595ZM297.237 158.016L298.001 157.37L297.238 156.467L296.474 157.37L297.237 158.016ZM228.451 230.595L227.765 229.867L227.758 229.874L227.751 229.88L228.451 230.595ZM101.201 444.644L102.201 444.652V444.644H101.201ZM490.956 476.246L491.944 476.399L492.123 475.246H490.956V476.246ZM209.174 467.608H210.174H209.174ZM209.174 466.449L208.174 466.447V466.449H209.174ZM299.976 375.647V374.647H299.974L299.976 375.647ZM593.03 384.285H592.03H593.03ZM587.624 501.966C573.431 574.125 532.88 638.414 473.874 682.307L475.068 683.912C534.473 639.722 575.297 574.998 589.587 502.352L587.624 501.966ZM473.874 682.307C414.868 726.2 341.634 746.551 268.442 739.396L268.247 741.386C341.934 748.59 415.663 728.101 475.068 683.912L473.874 682.307ZM268.442 739.396C195.25 732.24 127.343 698.091 77.9551 643.601L76.4733 644.944C126.195 699.802 194.56 734.182 268.247 741.386L268.442 739.396ZM77.9551 643.601C28.567 589.112 1.23535 518.186 1.28596 444.645L-0.714041 444.643C-0.764992 518.682 26.7514 590.086 76.4733 644.944L77.9551 643.601ZM1.28596 444.644C1.28596 344.264 49.6948 274.002 109.664 209.311C124.657 193.137 140.366 177.319 156.219 161.464C172.069 145.613 188.065 129.724 203.611 113.427C234.706 80.8319 264.044 46.5648 286.934 7.57086L285.209 6.5584C262.434 45.3575 233.217 79.4951 202.164 112.046C186.638 128.322 170.662 144.191 154.805 160.05C138.952 175.904 123.219 191.747 108.197 207.952C48.1052 272.775 -0.714041 343.51 -0.714041 444.644H1.28596ZM286.94 7.56026C287.917 5.84837 289.323 4.42108 291.021 3.41951L290.005 1.69698C288.007 2.87543 286.352 4.55478 285.203 6.569L286.94 7.56026ZM291.021 3.41951C292.719 2.41795 294.648 1.87678 296.619 1.84951L296.591 -0.150295C294.272 -0.118216 292.002 0.518525 290.005 1.69698L291.021 3.41951ZM296.605 1.84961H297.237V-0.150391H296.605V1.84961ZM297.223 1.84951C299.194 1.87678 301.124 2.41795 302.821 3.41951L303.838 1.69698C301.84 0.518525 299.57 -0.118216 297.251 -0.150295L297.223 1.84951ZM302.821 3.41951C304.519 4.42108 305.926 5.84837 306.903 7.56026L308.64 6.569C307.49 4.55478 305.835 2.87543 303.838 1.69698L302.821 3.41951ZM306.908 7.56928C340.851 65.637 385.715 110.097 430.133 153.739C474.577 197.406 518.562 240.242 550.981 295.149L552.703 294.132C520.128 238.961 475.944 195.945 431.534 152.312C387.099 108.653 342.424 64.3655 308.634 6.55998L306.908 7.56928ZM551.842 293.641H490.219V295.641H551.842V293.641ZM490.202 293.641C471.332 293.961 452.598 290.414 435.151 283.22L434.389 285.069C452.088 292.367 471.093 295.965 490.235 295.641L490.202 293.641ZM435.151 283.22C417.704 276.025 401.915 265.335 388.756 251.808L387.323 253.202C400.672 266.925 416.69 277.77 434.389 285.069L435.151 283.22ZM388.743 251.795L366.622 229.884L365.215 231.305L387.336 253.216L388.743 251.795ZM366.605 229.868C342.399 207.004 319.495 182.801 298.001 157.37L296.473 158.661C318.015 184.149 340.971 208.407 365.232 231.322L366.605 229.868ZM296.474 157.37C274.943 182.8 252.004 207.004 227.765 229.867L229.137 231.322C253.431 208.408 276.421 184.15 298 158.662L296.474 157.37ZM227.751 229.88C197.583 259.416 165.7 290.714 141.369 325.791C117.028 360.884 100.201 399.819 100.201 444.644H102.201C102.201 400.352 118.819 361.81 143.013 326.931C167.217 292.037 198.959 260.869 229.15 231.309L227.751 229.88ZM100.201 444.636C99.7974 494.411 118.248 542.494 151.844 579.222L153.32 577.873C120.065 541.517 101.801 493.922 102.201 444.652L100.201 444.636ZM151.844 579.222C185.441 615.951 231.693 638.603 281.307 642.625L281.469 640.632C232.359 636.65 186.575 614.228 153.32 577.873L151.844 579.222ZM281.307 642.625C330.921 646.648 380.218 631.744 419.293 600.908L418.054 599.338C379.376 629.861 330.579 644.614 281.469 640.632L281.307 642.625ZM419.293 600.908C458.368 570.071 484.324 525.589 491.944 476.399L489.968 476.093C482.424 524.783 456.732 568.814 418.054 599.338L419.293 600.908ZM490.956 475.246H217.811V477.246H490.956V475.246ZM217.811 475.246C215.786 475.246 213.843 474.441 212.411 473.009L210.996 474.423C212.804 476.23 215.255 477.246 217.811 477.246V475.246ZM212.411 473.009C210.978 471.576 210.174 469.634 210.174 467.608H208.174C208.174 470.164 209.189 472.616 210.996 474.423L212.411 473.009ZM210.174 467.608V466.449H208.174V467.608H210.174ZM210.174 466.452C210.229 442.651 219.708 419.841 236.538 403.011L235.123 401.597C217.92 418.8 208.23 442.117 208.174 466.447L210.174 466.452ZM236.538 403.011C253.367 386.181 276.178 376.702 299.978 376.647L299.974 374.647C275.644 374.703 252.327 384.393 235.123 401.597L236.538 403.011ZM299.976 376.647H584.392V374.647H299.976V376.647ZM584.392 376.647C586.417 376.647 588.36 377.452 589.793 378.884L591.207 377.47C589.399 375.662 586.948 374.647 584.392 374.647V376.647ZM589.793 378.884C591.225 380.316 592.03 382.259 592.03 384.285H594.03C594.03 381.729 593.014 379.277 591.207 377.47L589.793 378.884ZM592.03 384.285C592.03 427.37 595.394 460.906 587.413 501.969L589.376 502.35C597.406 461.037 594.03 427.156 594.03 384.285H592.03Z" fill="white" fill-opacity="0.3" mask="url(#path-1-inside-1)"/>
</svg>
