<svg width="558" height="742" viewBox="0 0 558 742" fill="none" xmlns="http://www.w3.org/2000/svg">
<mask id="path-1-inside-1" fill="white">
<path d="M551.943 501.765C537.702 574.167 497.014 638.674 437.809 682.715C378.603 726.756 305.121 747.176 231.682 739.996C158.243 732.817 90.1068 698.552 40.5518 643.878C-9.00313 589.204 -36.4272 518.039 -36.3764 444.25C-36.3764 242.735 158.08 162.256 249.409 6.6701C250.472 4.80704 252.003 3.25372 253.85 2.16371C255.698 1.0737 257.798 0.48475 259.943 0.455078L260.575 0.455078C262.72 0.48475 264.82 1.0737 266.667 2.16371C268.515 3.25372 270.046 4.80704 271.109 6.6701C338.842 122.543 450.185 184.167 515.18 294.246H453.556C434.551 294.568 415.68 290.996 398.107 283.75C380.535 276.503 364.631 265.736 351.377 252.111L329.256 230.2C305.022 207.311 282.093 183.08 260.575 157.621C239.02 183.08 216.055 207.311 191.788 230.2C131.429 289.295 64.5386 355.133 64.5386 444.25C64.137 493.772 82.4938 541.611 115.92 578.153C149.346 614.695 195.364 637.232 244.726 641.234C294.087 645.236 343.135 630.408 382.011 599.728C420.888 569.048 446.712 524.791 454.294 475.851H181.149C178.858 475.851 176.661 474.941 175.041 473.321C173.421 471.701 172.511 469.504 172.511 467.214V466.055C172.567 441.99 182.151 418.926 199.168 401.909C216.185 384.892 239.248 375.308 263.314 375.252H547.729C550.02 375.252 552.217 376.162 553.837 377.782C555.457 379.402 556.367 381.599 556.367 383.89C556.367 426.869 559.738 460.577 551.732 501.765"/>
</mask>
<path d="M-36.3764 444.25L-15.3764 444.264L-15.3764 444.257V444.25H-36.3764ZM249.409 6.6701L267.519 17.3009L267.584 17.19L267.648 17.0783L249.409 6.6701ZM259.943 0.455078V-20.5449H259.798L259.652 -20.5429L259.943 0.455078ZM260.575 0.455078L260.865 -20.5429L260.72 -20.5449H260.575V0.455078ZM271.109 6.6701L252.87 17.0783L252.924 17.1733L252.979 17.2678L271.109 6.6701ZM515.18 294.246V315.246H551.966L533.263 283.569L515.18 294.246ZM453.556 294.246V273.246H453.378L453.2 273.249L453.556 294.246ZM351.377 252.111L366.43 237.468L366.294 237.328L366.155 237.191L351.377 252.111ZM329.256 230.2L344.034 215.28L343.857 215.105L343.676 214.933L329.256 230.2ZM260.575 157.621L276.613 144.065L260.589 125.106L244.548 144.052L260.575 157.621ZM191.788 230.2L177.379 214.923L177.237 215.058L177.097 215.195L191.788 230.2ZM64.5386 444.25L85.5379 444.42L85.5386 444.335V444.25H64.5386ZM454.294 475.851L475.046 479.066L478.797 454.851H454.294V475.851ZM172.511 467.214H193.511H172.511ZM172.511 466.055L151.511 466.006L151.511 466.031V466.055H172.511ZM263.314 375.252V354.252H263.289L263.265 354.252L263.314 375.252ZM556.367 383.89H535.367H556.367ZM531.338 497.712C518.104 564.994 480.294 624.939 425.275 665.865L450.343 699.564C513.735 652.409 557.3 583.34 572.548 505.818L531.338 497.712ZM425.275 665.865C370.256 706.792 301.971 725.768 233.725 719.096L229.639 760.897C308.272 768.584 386.95 746.72 450.343 699.564L425.275 665.865ZM233.725 719.096C165.479 712.424 102.162 680.582 56.1116 629.775L24.9921 657.981C78.0515 716.521 151.006 753.209 229.639 760.897L233.725 719.096ZM56.1116 629.775C10.0611 578.968 -15.4236 512.835 -15.3764 444.264L-57.3764 444.235C-57.4308 523.243 -28.0673 599.441 24.9921 657.981L56.1116 629.775ZM-15.3764 444.25C-15.3764 351.413 28.929 285.878 87.6685 222.513C102.378 206.646 117.846 191.065 133.7 175.211C149.471 159.438 165.671 143.347 181.42 126.837C212.931 93.8059 243.486 58.244 267.519 17.3009L231.298 -3.9607C209.668 32.8892 181.667 65.7321 151.031 97.8465C135.707 113.91 119.935 129.577 104 145.514C88.1464 161.369 72.1728 177.449 56.8671 193.96C-4.45374 260.11 -57.3764 335.572 -57.3764 444.25H-15.3764ZM267.648 17.0783C266.9 18.3897 265.822 19.4831 264.522 20.2504L243.179 -15.9229C238.184 -12.9757 234.044 -8.77566 231.17 -3.73814L267.648 17.0783ZM264.522 20.2504C263.221 21.0176 261.743 21.4322 260.233 21.4531L259.652 -20.5429C253.853 -20.4627 248.175 -18.8702 243.179 -15.9229L264.522 20.2504ZM259.943 21.4551H260.575V-20.5449H259.943V21.4551ZM260.284 21.4531C258.775 21.4322 257.296 21.0176 255.996 20.2504L277.338 -15.9229C272.343 -18.8702 266.665 -20.4627 260.865 -20.5429L260.284 21.4531ZM255.996 20.2504C254.696 19.4831 253.618 18.3897 252.87 17.0783L289.348 -3.73814C286.473 -8.77566 282.334 -12.9757 277.338 -15.9229L255.996 20.2504ZM252.979 17.2678C288.455 77.957 335.211 124.142 379.454 167.61C424.24 211.614 466.238 252.659 497.096 304.923L533.263 283.569C499.127 225.754 452.956 180.948 408.889 137.651C364.278 93.82 321.496 51.2564 289.239 -3.92758L252.979 17.2678ZM515.18 273.246H453.556V315.246H515.18V273.246ZM453.2 273.249C437.061 273.523 421.036 270.489 406.113 264.336L390.102 303.164C410.324 311.503 432.04 315.614 453.912 315.243L453.2 273.249ZM406.113 264.336C391.19 258.182 377.685 249.038 366.43 237.468L336.325 266.754C351.577 282.433 369.879 294.824 390.102 303.164L406.113 264.336ZM366.155 237.191L344.034 215.28L314.478 245.12L336.599 267.031L366.155 237.191ZM343.676 214.933C320.013 192.584 297.624 168.924 276.613 144.065L244.536 171.177C266.561 197.236 290.031 222.038 314.836 245.467L343.676 214.933ZM244.548 144.052C223.5 168.912 201.075 192.573 177.379 214.923L206.197 245.477C231.035 222.05 254.54 197.249 276.602 171.191L244.548 144.052ZM177.097 215.195C147.17 244.495 113.871 277.095 88.2734 313.998C62.4508 351.225 43.5386 394.089 43.5386 444.25H85.5386C85.5386 405.293 100.072 370.68 122.784 337.936C145.722 304.867 176.048 275 206.48 245.206L177.097 215.195ZM43.5392 444.079C43.0947 498.907 63.4179 551.87 100.425 592.327L131.415 563.979C101.57 531.352 85.1794 488.637 85.5379 444.42L43.5392 444.079ZM100.425 592.327C137.431 632.783 188.379 657.734 243.028 662.165L246.423 620.303C202.349 616.729 161.26 596.607 131.415 563.979L100.425 592.327ZM243.028 662.165C297.678 666.596 351.98 650.179 395.021 616.213L369.002 583.243C334.29 610.636 290.497 623.876 246.423 620.303L243.028 662.165ZM395.021 616.213C438.062 582.247 466.652 533.249 475.046 479.066L433.541 472.636C426.771 516.334 403.714 555.85 369.002 583.243L395.021 616.213ZM454.294 454.851H181.149V496.851H454.294V454.851ZM181.149 454.851C184.428 454.851 187.572 456.154 189.89 458.472L160.192 488.171C165.75 493.729 173.289 496.851 181.149 496.851V454.851ZM189.89 458.472C192.209 460.79 193.511 463.935 193.511 467.214H151.511C151.511 475.074 154.634 482.612 160.192 488.171L189.89 458.472ZM193.511 467.214V466.055H151.511V467.214H193.511ZM193.511 466.103C193.554 447.591 200.927 429.849 214.017 416.758L184.319 387.06C163.376 408.003 151.58 436.388 151.511 466.006L193.511 466.103ZM214.017 416.758C227.108 403.668 244.85 396.295 263.362 396.252L263.265 354.252C233.647 354.321 205.262 366.117 184.319 387.06L214.017 416.758ZM263.314 396.252H547.729V354.252H263.314V396.252ZM547.729 396.252C544.451 396.252 541.307 394.95 538.988 392.631L568.687 362.933C563.128 357.375 555.59 354.252 547.729 354.252V396.252ZM538.988 392.631C536.67 390.313 535.367 387.169 535.367 383.89H577.367C577.367 376.03 574.245 368.491 568.687 362.933L538.988 392.631ZM535.367 383.89C535.367 429.108 538.611 459.207 531.118 497.758L572.347 505.772C580.865 461.948 577.367 424.63 577.367 383.89H535.367Z" fill="#6E4C98" mask="url(#path-1-inside-1)"/>
</svg>
