<svg width="167" height="126" viewBox="0 0 167 126" fill="none" xmlns="http://www.w3.org/2000/svg">
<path d="M282.235 10.8297C275.405 45.5537 255.891 76.4911 227.496 97.6131C199.101 118.735 163.859 128.529 128.638 125.085C93.4163 121.642 60.7384 105.209 36.9719 78.9871C13.2054 52.7657 0.0528279 18.6348 0.0771822 -16.7546C0.0771822 -113.401 93.3382 -151.998 137.14 -226.617C137.649 -227.511 138.384 -228.256 139.27 -228.779C140.156 -229.301 141.163 -229.584 142.192 -229.598H142.495C143.523 -229.584 144.531 -229.301 145.417 -228.779C146.303 -228.256 147.037 -227.511 147.547 -226.617C180.032 -171.045 233.432 -141.49 264.603 -88.696H235.048C225.933 -88.5416 216.883 -90.2548 208.455 -93.7303C200.027 -97.2057 192.4 -102.37 186.044 -108.904L175.434 -119.413C163.812 -130.39 152.815 -142.011 142.495 -154.221C132.157 -142.011 121.143 -130.39 109.505 -119.413C80.5565 -91.0705 48.4759 -59.4951 48.4759 -16.7546C48.2834 6.99623 57.0872 29.9398 73.1183 47.4654C89.1494 64.9909 111.22 75.7995 134.893 77.719C158.567 79.6385 182.091 72.5267 200.736 57.8127C219.381 43.0988 231.766 21.8732 235.402 -1.59843H104.402C103.304 -1.59843 102.25 -2.0349 101.473 -2.8118C100.696 -3.5887 100.26 -4.64241 100.26 -5.74112V-6.29684C100.286 -17.8385 104.883 -28.8998 113.044 -37.061C121.205 -45.2222 132.267 -49.819 143.808 -49.8456H280.214C281.313 -49.8456 282.366 -49.4092 283.143 -48.6323C283.92 -47.8554 284.357 -46.8017 284.357 -45.703C284.357 -25.0905 285.973 -8.92392 282.134 10.8297" fill="#A88CC0"/>
</svg>
