<svg width="742" height="1144" viewBox="0 0 742 1144" fill="none" xmlns="http://www.w3.org/2000/svg">
<mask id="path-1-inside-1" fill="white">
<path d="M908.084 774.003C886.102 885.789 823.3 985.385 731.915 1053.38C640.53 1121.38 527.109 1152.91 413.754 1141.82C300.399 1130.74 195.23 1077.83 118.74 993.421C42.2513 909.007 -0.0782721 799.13 0.000108657 685.202C0.000108657 374.072 300.147 249.815 441.116 9.59575C442.757 6.71926 445.12 4.321 447.971 2.63807C450.823 0.955134 454.064 0.0458115 457.375 0L458.351 0C461.661 0.0458115 464.903 0.955134 467.754 2.63807C470.606 4.321 472.969 6.71926 474.61 9.59575C579.157 188.5 751.019 283.644 851.339 453.603H756.222C726.886 454.1 697.759 448.584 670.635 437.396C643.511 426.208 618.964 409.583 598.506 388.547L564.361 354.717C526.956 319.378 491.564 281.966 458.351 242.659C425.08 281.966 389.634 319.378 352.177 354.717C259.011 445.958 155.764 547.608 155.764 685.202C155.145 761.662 183.479 835.524 235.073 891.943C286.666 948.363 357.696 983.159 433.887 989.338C510.078 995.518 585.784 972.623 645.79 925.254C705.797 877.886 745.657 809.555 757.36 733.994H335.755C332.219 733.994 328.828 732.589 326.328 730.087C323.827 727.586 322.423 724.194 322.423 720.657V718.868C322.509 681.712 337.302 646.103 363.568 619.83C389.834 593.557 425.433 578.758 462.578 578.673H901.58C905.116 578.673 908.507 580.078 911.008 582.579C913.508 585.08 914.913 588.472 914.913 592.009C914.913 658.366 920.116 710.411 907.759 774.003"/>
</mask>
<path d="M0.000108657 685.202L21.0001 685.216L21.0001 685.209V685.202H0.000108657ZM441.116 9.59575L459.227 20.2243L459.293 20.1134L459.356 20.0018L441.116 9.59575ZM457.375 0V-21H457.23L457.085 -20.998L457.375 0ZM458.351 0L458.641 -20.998L458.496 -21H458.351V0ZM474.61 9.59575L456.37 20.0018L456.424 20.0967L456.479 20.1912L474.61 9.59575ZM851.339 453.603V474.603H888.12L869.423 442.928L851.339 453.603ZM756.222 453.603V432.603H756.044L755.866 432.606L756.222 453.603ZM598.506 388.547L613.561 373.906L613.425 373.766L613.286 373.629L598.506 388.547ZM564.361 354.717L579.142 339.799L578.965 339.624L578.783 339.453L564.361 354.717ZM458.351 242.659L474.391 229.105L458.364 210.137L442.322 229.092L458.351 242.659ZM352.177 354.717L337.766 339.443L337.624 339.577L337.484 339.714L352.177 354.717ZM155.764 685.202L176.764 685.372L176.764 685.287V685.202H155.764ZM757.36 733.994L778.112 737.208L781.863 712.994H757.36V733.994ZM322.423 720.657H343.423H322.423ZM322.423 718.868L301.423 718.82L301.423 718.844V718.868H322.423ZM462.578 578.673V557.673H462.554L462.53 557.673L462.578 578.673ZM914.913 592.009H893.913H914.913ZM887.478 769.951C866.503 876.619 806.577 971.653 719.379 1036.54L744.451 1070.23C840.023 999.118 905.701 894.96 928.689 778.055L887.478 769.951ZM719.379 1036.54C632.181 1101.42 523.958 1131.5 415.798 1120.92L411.71 1162.72C530.261 1174.32 648.879 1141.34 744.451 1070.23L719.379 1036.54ZM415.798 1120.92C307.638 1110.35 207.288 1059.87 134.302 979.32L103.179 1007.52C183.172 1095.8 293.16 1151.13 411.71 1162.72L415.798 1120.92ZM134.302 979.32C61.3168 898.772 20.9253 793.928 21.0001 685.216L-20.9999 685.187C-21.0819 804.332 23.1859 919.241 103.179 1007.52L134.302 979.32ZM21.0001 685.202C21.0001 537.555 91.7306 433.671 183.098 335.081C205.964 310.407 229.977 286.216 254.447 261.737C278.835 237.34 303.723 212.611 327.917 187.242C376.317 136.492 422.784 82.3256 459.227 20.2243L423.004 -1.03279C388.963 56.9754 345.049 108.423 297.523 158.256C273.755 183.178 249.295 207.483 224.743 232.044C200.273 256.523 175.755 281.215 152.292 306.533C58.3433 407.909 -20.9999 521.719 -20.9999 685.202H21.0001ZM459.356 20.0018C459.186 20.2995 458.941 20.5484 458.645 20.7234L437.298 -15.4473C431.298 -11.9064 426.327 -6.86093 422.875 -0.81025L459.356 20.0018ZM458.645 20.7234C458.348 20.8984 458.011 20.9932 457.666 20.998L457.085 -20.998C450.118 -20.9016 443.298 -18.9881 437.298 -15.4473L458.645 20.7234ZM457.375 21H458.351V-21H457.375V21ZM458.06 20.998C457.715 20.9932 457.377 20.8984 457.081 20.7234L478.428 -15.4473C472.428 -18.9881 465.608 -20.9016 458.641 -20.998L458.06 20.998ZM457.081 20.7234C456.784 20.5484 456.539 20.2995 456.37 20.0018L492.85 -0.81025C489.399 -6.86093 484.427 -11.9064 478.428 -15.4473L457.081 20.7234ZM456.479 20.1912C510.361 112.396 581.45 182.718 649.84 249.931C718.773 317.678 784.732 382.073 833.254 464.277L869.423 442.928C817.625 355.173 747.494 287.016 679.279 219.976C610.521 152.401 543.406 85.6996 492.741 -0.999672L456.479 20.1912ZM851.339 432.603H756.222V474.603H851.339V432.603ZM755.866 432.606C729.397 433.054 703.117 428.078 678.643 417.983L662.628 456.809C692.402 469.091 724.375 475.145 756.577 474.6L755.866 432.606ZM678.643 417.983C654.169 407.888 632.021 392.887 613.561 373.906L583.451 403.187C605.908 426.279 632.853 444.528 662.628 456.809L678.643 417.983ZM613.286 373.629L579.142 339.799L549.581 369.635L583.726 403.465L613.286 373.629ZM578.783 339.453C541.949 304.653 507.097 267.812 474.391 229.105L442.31 256.212C476.03 296.12 511.963 334.103 549.94 369.982L578.783 339.453ZM442.322 229.092C409.558 267.8 374.651 304.642 337.766 339.443L366.589 369.992C404.616 334.114 440.603 296.133 474.38 256.226L442.322 229.092ZM337.484 339.714C291.153 385.088 240.564 434.677 201.777 490.611C162.765 546.87 134.764 610.804 134.764 685.202H176.764C176.764 622.006 200.388 566.319 236.29 514.544C272.418 462.445 320.035 415.588 366.871 369.721L337.484 339.714ZM134.765 685.031C134.102 766.795 164.402 845.781 219.575 906.115L250.57 877.772C202.556 825.267 176.187 756.529 176.764 685.372L134.765 685.031ZM219.575 906.115C274.749 966.45 350.709 1003.66 432.189 1010.27L435.585 968.407C364.683 962.657 298.583 930.276 250.57 877.772L219.575 906.115ZM432.189 1010.27C513.67 1016.88 594.631 992.393 658.802 941.738L632.779 908.771C576.937 952.852 506.486 974.157 435.585 968.407L432.189 1010.27ZM658.802 941.738C722.973 891.082 765.598 818.01 778.112 737.208L736.607 730.78C725.716 801.1 688.621 864.69 632.779 908.771L658.802 941.738ZM757.36 712.994H335.755V754.994H757.36V712.994ZM335.755 712.994C337.791 712.994 339.742 713.803 341.179 715.24L311.476 744.935C317.914 751.375 326.648 754.994 335.755 754.994V712.994ZM341.179 715.24C342.616 716.678 343.423 718.627 343.423 720.657H301.423C301.423 729.762 305.038 738.495 311.476 744.935L341.179 715.24ZM343.423 720.657V718.868H301.423V720.657H343.423ZM343.423 718.917C343.496 687.312 356.08 657.023 378.419 634.677L348.717 604.983C318.525 635.183 301.521 676.113 301.423 718.82L343.423 718.917ZM378.419 634.677C400.759 612.331 431.036 599.746 462.627 599.673L462.53 557.673C419.83 557.771 378.908 574.782 348.717 604.983L378.419 634.677ZM462.578 599.673H901.58V557.673H462.578V599.673ZM901.58 599.673C899.545 599.673 897.594 598.864 896.156 597.426L925.859 567.732C919.421 561.292 910.687 557.673 901.58 557.673V599.673ZM896.156 597.426C894.719 595.988 893.913 594.04 893.913 592.009H935.913C935.913 582.904 932.297 574.171 925.859 567.732L896.156 597.426ZM893.913 592.009C893.913 660.605 898.989 709.041 887.144 769.997L928.373 778.009C941.242 711.781 935.913 656.128 935.913 592.009H893.913Z" fill="#6E4C98" mask="url(#path-1-inside-1)"/>
</svg>
