<svg width="141" height="1144" viewBox="0 0 141 1144" fill="none" xmlns="http://www.w3.org/2000/svg">
<mask id="path-1-inside-1" fill="white">
<path d="M133.084 774.003C111.102 885.789 48.3 985.385 -43.085 1053.38C-134.47 1121.38 -247.891 1152.91 -361.246 1141.82C-474.601 1130.74 -579.77 1077.83 -656.26 993.421C-732.749 909.007 -775.078 799.13 -775 685.202C-775 374.072 -474.853 249.815 -333.884 9.59575C-332.243 6.71926 -329.88 4.321 -327.029 2.63807C-324.177 0.955134 -320.936 0.0458115 -317.625 0L-316.649 0C-313.339 0.0458115 -310.097 0.955134 -307.246 2.63807C-304.394 4.321 -302.031 6.71926 -300.39 9.59575C-195.843 188.5 -23.9814 283.644 76.3387 453.603H-18.7784C-48.114 454.1 -77.2407 448.584 -104.365 437.396C-131.489 426.208 -156.036 409.583 -176.494 388.547L-210.639 354.717C-248.044 319.378 -283.436 281.966 -316.649 242.659C-349.92 281.966 -385.366 319.378 -422.823 354.717C-515.989 445.958 -619.236 547.608 -619.236 685.202C-619.855 761.662 -591.521 835.524 -539.927 891.943C-488.334 948.363 -417.304 983.159 -341.113 989.338C-264.922 995.518 -189.216 972.623 -129.21 925.254C-69.203 877.886 -29.3431 809.555 -17.6402 733.994H-439.245C-442.781 733.994 -446.172 732.589 -448.672 730.087C-451.173 727.586 -452.577 724.194 -452.577 720.657V718.868C-452.491 681.712 -437.698 646.103 -411.432 619.83C-385.166 593.557 -349.567 578.758 -312.422 578.673H126.58C130.116 578.673 133.507 580.078 136.008 582.579C138.508 585.08 139.913 588.472 139.913 592.009C139.913 658.366 145.116 710.411 132.759 774.003"/>
</mask>
<path d="M-775 685.202L-754 685.216L-754 685.209V685.202H-775ZM-333.884 9.59575L-315.773 20.2243L-315.707 20.1134L-315.644 20.0018L-333.884 9.59575ZM-317.625 0V-21H-317.77L-317.915 -20.998L-317.625 0ZM-316.649 0L-316.359 -20.998L-316.504 -21H-316.649V0ZM-300.39 9.59575L-318.63 20.0018L-318.576 20.0967L-318.521 20.1912L-300.39 9.59575ZM76.3387 453.603V474.603H113.12L94.4233 442.928L76.3387 453.603ZM-18.7784 453.603V432.603H-18.9564L-19.1343 432.606L-18.7784 453.603ZM-176.494 388.547L-161.439 373.906L-161.575 373.766L-161.714 373.629L-176.494 388.547ZM-210.639 354.717L-195.858 339.799L-196.035 339.624L-196.217 339.453L-210.639 354.717ZM-316.649 242.659L-300.609 229.105L-316.636 210.137L-332.678 229.092L-316.649 242.659ZM-422.823 354.717L-437.234 339.443L-437.376 339.577L-437.516 339.714L-422.823 354.717ZM-619.236 685.202L-598.236 685.372L-598.236 685.287V685.202H-619.236ZM-17.6402 733.994L3.11237 737.208L6.86261 712.994H-17.6402V733.994ZM-452.577 720.657H-431.577H-452.577ZM-452.577 718.868L-473.577 718.82L-473.577 718.844V718.868H-452.577ZM-312.422 578.673V557.673H-312.446L-312.47 557.673L-312.422 578.673ZM139.913 592.009H118.913H139.913ZM112.478 769.951C91.5032 876.619 31.5771 971.653 -55.621 1036.54L-30.5489 1070.23C65.0229 999.118 130.701 894.96 153.689 778.055L112.478 769.951ZM-55.621 1036.54C-142.819 1101.42 -251.042 1131.5 -359.202 1120.92L-363.29 1162.72C-244.739 1174.32 -126.121 1141.34 -30.5489 1070.23L-55.621 1036.54ZM-359.202 1120.92C-467.362 1110.35 -567.712 1059.87 -640.698 979.32L-671.821 1007.52C-591.828 1095.8 -481.84 1151.13 -363.29 1162.72L-359.202 1120.92ZM-640.698 979.32C-713.683 898.772 -754.075 793.928 -754 685.216L-796 685.187C-796.082 804.332 -751.814 919.241 -671.821 1007.52L-640.698 979.32ZM-754 685.202C-754 537.555 -683.269 433.671 -591.902 335.081C-569.036 310.407 -545.023 286.216 -520.553 261.737C-496.165 237.34 -471.277 212.611 -447.083 187.242C-398.683 136.492 -352.216 82.3256 -315.773 20.2243L-351.996 -1.03279C-386.037 56.9754 -429.951 108.423 -477.477 158.256C-501.245 183.178 -525.705 207.483 -550.257 232.044C-574.727 256.523 -599.245 281.215 -622.708 306.533C-716.657 407.909 -796 521.719 -796 685.202H-754ZM-315.644 20.0018C-315.814 20.2995 -316.059 20.5484 -316.355 20.7234L-337.702 -15.4473C-343.702 -11.9064 -348.673 -6.86093 -352.125 -0.81025L-315.644 20.0018ZM-316.355 20.7234C-316.652 20.8984 -316.989 20.9932 -317.334 20.998L-317.915 -20.998C-324.882 -20.9016 -331.702 -18.9881 -337.702 -15.4473L-316.355 20.7234ZM-317.625 21H-316.649V-21H-317.625V21ZM-316.94 20.998C-317.285 20.9932 -317.623 20.8984 -317.919 20.7234L-296.572 -15.4473C-302.572 -18.9881 -309.392 -20.9016 -316.359 -20.998L-316.94 20.998ZM-317.919 20.7234C-318.216 20.5484 -318.461 20.2995 -318.63 20.0018L-282.15 -0.81025C-285.601 -6.86093 -290.573 -11.9064 -296.572 -15.4473L-317.919 20.7234ZM-318.521 20.1912C-264.639 112.396 -193.55 182.718 -125.16 249.931C-56.2268 317.678 9.73224 382.073 58.2541 464.277L94.4233 442.928C42.6251 355.173 -27.5065 287.016 -95.7205 219.976C-164.479 152.401 -231.594 85.6996 -282.259 -0.999672L-318.521 20.1912ZM76.3387 432.603H-18.7784V474.603H76.3387V432.603ZM-19.1343 432.606C-45.603 433.054 -71.8833 428.078 -96.3569 417.983L-112.372 456.809C-82.598 469.091 -50.6249 475.145 -18.4225 474.6L-19.1343 432.606ZM-96.3569 417.983C-120.831 407.888 -142.979 392.887 -161.439 373.906L-191.549 403.187C-169.092 426.279 -142.147 444.528 -112.372 456.809L-96.3569 417.983ZM-161.714 373.629L-195.858 339.799L-225.419 369.635L-191.274 403.465L-161.714 373.629ZM-196.217 339.453C-233.051 304.653 -267.903 267.812 -300.609 229.105L-332.69 256.212C-298.97 296.12 -263.037 334.103 -225.06 369.982L-196.217 339.453ZM-332.678 229.092C-365.442 267.8 -400.349 304.642 -437.234 339.443L-408.411 369.992C-370.384 334.114 -334.397 296.133 -300.62 256.226L-332.678 229.092ZM-437.516 339.714C-483.847 385.088 -534.436 434.677 -573.223 490.611C-612.235 546.87 -640.236 610.804 -640.236 685.202H-598.236C-598.236 622.006 -574.612 566.319 -538.71 514.544C-502.582 462.445 -454.965 415.588 -408.129 369.721L-437.516 339.714ZM-640.235 685.031C-640.898 766.795 -610.598 845.781 -555.425 906.115L-524.43 877.772C-572.444 825.267 -598.813 756.529 -598.236 685.372L-640.235 685.031ZM-555.425 906.115C-500.251 966.45 -424.291 1003.66 -342.811 1010.27L-339.415 968.407C-410.317 962.657 -476.417 930.276 -524.43 877.772L-555.425 906.115ZM-342.811 1010.27C-261.33 1016.88 -180.369 992.393 -116.198 941.738L-142.221 908.771C-198.063 952.852 -268.514 974.157 -339.415 968.407L-342.811 1010.27ZM-116.198 941.738C-52.027 891.082 -9.40222 818.01 3.11237 737.208L-38.3928 730.78C-49.2839 801.1 -86.379 864.69 -142.221 908.771L-116.198 941.738ZM-17.6402 712.994H-439.245V754.994H-17.6402V712.994ZM-439.245 712.994C-437.209 712.994 -435.258 713.803 -433.821 715.24L-463.524 744.935C-457.086 751.375 -448.352 754.994 -439.245 754.994V712.994ZM-433.821 715.24C-432.384 716.678 -431.577 718.627 -431.577 720.657H-473.577C-473.577 729.762 -469.962 738.495 -463.524 744.935L-433.821 715.24ZM-431.577 720.657V718.868H-473.577V720.657H-431.577ZM-431.577 718.917C-431.504 687.312 -418.92 657.023 -396.581 634.677L-426.283 604.983C-456.475 635.183 -473.479 676.113 -473.577 718.82L-431.577 718.917ZM-396.581 634.677C-374.241 612.331 -343.964 599.746 -312.373 599.673L-312.47 557.673C-355.17 557.771 -396.092 574.782 -426.283 604.983L-396.581 634.677ZM-312.422 599.673H126.58V557.673H-312.422V599.673ZM126.58 599.673C124.545 599.673 122.594 598.864 121.156 597.426L150.859 567.732C144.421 561.292 135.687 557.673 126.58 557.673V599.673ZM121.156 597.426C119.719 595.988 118.913 594.04 118.913 592.009H160.913C160.913 582.904 157.297 574.171 150.859 567.732L121.156 597.426ZM118.913 592.009C118.913 660.605 123.989 709.041 112.144 769.997L153.373 778.009C166.242 711.781 160.913 656.128 160.913 592.009H118.913Z" fill="#6E4C98" mask="url(#path-1-inside-1)"/>
</svg>
