<svg width="13" height="9" viewBox="0 0 13 9" fill="none" xmlns="http://www.w3.org/2000/svg">
<path fill-rule="evenodd" clip-rule="evenodd" d="M8.44508 8.4641C8.39006 8.40921 8.3464 8.344 8.31661 8.27221C8.28682 8.20042 8.27148 8.12346 8.27148 8.04574C8.27148 7.96801 8.28682 7.89105 8.31661 7.81926C8.3464 7.74748 8.39005 7.68227 8.44508 7.62738L11.5733 4.50033L8.44508 1.37328C8.33413 1.26232 8.27179 1.11183 8.27179 0.954917C8.27179 0.798003 8.33413 0.647514 8.44508 0.536559C8.55604 0.425604 8.70653 0.36327 8.86344 0.36327C9.02036 0.36327 9.17084 0.425604 9.2818 0.536559L12.8272 4.08197C12.8822 4.13686 12.9259 4.20207 12.9557 4.27385C12.9855 4.34564 13.0008 4.4226 13.0008 4.50033C13.0008 4.57805 12.9855 4.65501 12.9557 4.7268C12.9259 4.79859 12.8822 4.8638 12.8272 4.91869L9.2818 8.4641C9.22691 8.51912 9.1617 8.56278 9.08991 8.59257C9.01813 8.62236 8.94117 8.6377 8.86344 8.6377C8.78572 8.6377 8.70876 8.62236 8.63697 8.59257C8.56518 8.56278 8.49997 8.51912 8.44508 8.4641Z" fill="white"/>
<path fill-rule="evenodd" clip-rule="evenodd" d="M-2.58291e-08 4.50032C-3.26794e-08 4.3436 0.0622556 4.1933 0.173071 4.08248C0.283887 3.97167 0.434185 3.90941 0.590902 3.90941L11.2271 3.90941C11.3839 3.90941 11.5341 3.97167 11.645 4.08248C11.7558 4.1933 11.818 4.3436 11.818 4.50031C11.818 4.65703 11.7558 4.80733 11.645 4.91815C11.5341 5.02896 11.3839 5.09122 11.2271 5.09122L0.590902 5.09122C0.434185 5.09122 0.283887 5.02896 0.173071 4.91815C0.0622556 4.80733 -1.89788e-08 4.65703 -2.58291e-08 4.50032Z" fill="white"/>
</svg>
